<svg width="35" height="46" viewBox="0 0 35 46" fill="none" xmlns="http://www.w3.org/2000/svg">
<path d="M0 5.67308H4.31627C4.31627 5.67308 6.88789 5.53181 8.51404 7.5226L17.9385 19.5845H11.3252C11.3252 19.5845 8.39461 19.7146 7.20744 17.6946L0 5.67308Z" fill="url(#paint0_linear_1_1870)"/>
<path d="M14.8488 30.5202L18.7295 37.0335C18.7295 37.0335 20.1559 40.3303 24.8679 40.3303H34.7667L20.749 23.1221L14.8488 24.4897C14.8488 24.4894 13.2258 26.6605 14.8488 30.5202V30.5202Z" fill="url(#paint1_linear_1_1870)"/>
<path d="M22.8576 25.7126L20.5858 22.918L14.8607 24.4891C14.8607 24.4891 13.2377 26.6602 14.8607 30.5199L15.099 30.9316C15.0799 30.6764 14.9039 26.6935 22.8576 25.7126V25.7126Z" fill="url(#paint2_linear_1_1870)"/>
<path d="M15.0814 30.9216C15.0814 30.9216 13.2879 26.2406 19.1397 23.9984C19.1397 23.9984 23.3081 22.4844 26.0964 23.3819C26.0964 23.3819 25.9035 19.9622 19.0565 20.1863C19.0565 20.1863 15.4409 20.1584 12.597 21.1676C12.597 21.1676 9.58762 21.9803 11.8238 25.4838L15.0814 30.9216Z" fill="url(#paint3_linear_1_1870)"/>
<defs>
<linearGradient id="paint0_linear_1_1870" x1="8.96927" y1="5.67086" x2="8.96927" y2="19.5861" gradientUnits="userSpaceOnUse">
<stop offset="0.033" stop-color="#19AADE"/>
<stop offset="0.951" stop-color="#134E8E"/>
</linearGradient>
<linearGradient id="paint1_linear_1_1870" x1="24.4471" y1="23.1221" x2="24.4471" y2="40.3303" gradientUnits="userSpaceOnUse">
<stop offset="0.132" stop-color="#E02527"/>
<stop offset="0.742" stop-color="#A1141C"/>
</linearGradient>
<linearGradient id="paint2_linear_1_1870" x1="14.1398" y1="26.925" x2="22.8576" y2="26.925" gradientUnits="userSpaceOnUse">
<stop offset="0.005" stop-color="#71251D"/>
<stop offset="0.742" stop-color="#C73127"/>
</linearGradient>
<linearGradient id="paint3_linear_1_1870" x1="10.9977" y1="25.5486" x2="26.0967" y2="25.5486" gradientUnits="userSpaceOnUse">
<stop offset="0.148" stop-color="#E8EBEE"/>
<stop offset="0.742" stop-color="#95A5AF"/>
</linearGradient>
</defs>
</svg>
