<svg width="17" height="18" viewBox="0 0 17 18" fill="none" xmlns="http://www.w3.org/2000/svg">
<path d="M16.1059 6.43948L11.1164 5.65526L8.88598 0.765024C8.82506 0.631132 8.72483 0.522744 8.60103 0.45686C8.29054 0.29109 7.91323 0.429232 7.75799 0.765024L5.52756 5.65526L0.538084 6.43948C0.400525 6.46074 0.274756 6.53087 0.178465 6.63713C0.0620533 6.76653 -0.00209454 6.94062 0.000116346 7.12115C0.00232723 7.30167 0.070716 7.47386 0.190255 7.59988L3.80021 11.4062L2.94734 16.781C2.92734 16.9061 2.94013 17.0346 2.98427 17.1522C3.0284 17.2698 3.10212 17.3716 3.19705 17.4462C3.29198 17.5208 3.40432 17.5651 3.52135 17.5741C3.63838 17.5831 3.75541 17.5565 3.85916 17.4972L8.32198 14.9597L12.7848 17.4972C12.9066 17.5674 13.0481 17.5908 13.1837 17.5653C13.5257 17.5015 13.7556 17.1508 13.6966 16.781L12.8438 11.4062L16.4537 7.59988C16.552 7.49574 16.6168 7.35972 16.6365 7.21096C16.6895 6.83903 16.4498 6.49474 16.1059 6.43948V6.43948Z" fill="#FDBF00"/>
</svg>
