<svg width="17" height="16" viewBox="0 0 17 16" fill="none" xmlns="http://www.w3.org/2000/svg">
<g clip-path="url(#clip0_1_2029)">
<g clip-path="url(#clip1_1_2029)">
<path d="M12.0667 13.7434V12.4767C12.0667 11.8048 11.7998 11.1604 11.3247 10.6854C10.8496 10.2103 10.2052 9.94336 9.53335 9.94336H4.46668C3.7948 9.94336 3.15044 10.2103 2.67535 10.6854C2.20025 11.1604 1.93335 11.8048 1.93335 12.4767V13.7434" stroke="#7E8B97" stroke-width="1.5" stroke-linecap="round" stroke-linejoin="round"/>
<path d="M7.00013 7.41042C8.39925 7.41042 9.53346 6.2762 9.53346 4.87708C9.53346 3.47796 8.39925 2.34375 7.00013 2.34375C5.60101 2.34375 4.4668 3.47796 4.4668 4.87708C4.4668 6.2762 5.60101 7.41042 7.00013 7.41042Z" stroke="#7E8B97" stroke-width="1.5" stroke-linecap="round" stroke-linejoin="round"/>
<path d="M15.8667 13.7434V12.4768C15.8663 11.9155 15.6794 11.3702 15.3355 10.9266C14.9917 10.483 14.5102 10.1661 13.9667 10.0258M11.4333 2.42578C11.9783 2.56531 12.4613 2.88223 12.8062 3.32658C13.1511 3.77093 13.3383 4.31744 13.3383 4.87995C13.3383 5.44246 13.1511 5.98897 12.8062 6.43332C12.4613 6.87767 11.9783 7.19459 11.4333 7.33411" stroke="#7E8B97" stroke-width="1.5" stroke-linecap="round" stroke-linejoin="round"/>
</g>
</g>
<defs>
<clipPath id="clip0_1_2029">
<rect width="16" height="16" fill="white" transform="translate(0.5)"/>
</clipPath>
<clipPath id="clip1_1_2029">
<rect width="15.2" height="15.2" fill="white" transform="translate(1.30005 0.443359)"/>
</clipPath>
</defs>
</svg>
