<svg width="430" height="519" viewBox="0 0 430 519" fill="none" xmlns="http://www.w3.org/2000/svg">
<g filter="url(#filter0_d_1_2244)">
<ellipse cx="168.495" cy="17.8314" rx="9" ry="9.20348" fill="#4AACFF"/>
<path d="M168.495 28.0349C174.039 28.0349 178.495 23.4454 178.495 17.8314C178.495 12.2174 174.039 7.62793 168.495 7.62793C162.952 7.62793 158.495 12.2174 158.495 17.8314C158.495 23.4454 162.952 28.0349 168.495 28.0349Z" stroke="white" stroke-width="2"/>
</g>
<g filter="url(#filter1_d_1_2244)">
<ellipse cx="190.062" cy="20.5531" rx="9" ry="9.20348" fill="#4AACFF"/>
<path d="M190.062 30.7566C195.605 30.7566 200.062 26.1671 200.062 20.5531C200.062 14.9391 195.605 10.3496 190.062 10.3496C184.518 10.3496 180.062 14.9391 180.062 20.5531C180.062 26.1671 184.518 30.7566 190.062 30.7566Z" stroke="white" stroke-width="2"/>
</g>
<g filter="url(#filter2_d_1_2244)">
<ellipse cx="52.7174" cy="95.6488" rx="9" ry="9.20348" fill="#4AACFF"/>
<path d="M52.7174 105.852C58.2612 105.852 62.7174 101.263 62.7174 95.6488C62.7174 90.0348 58.2612 85.4453 52.7174 85.4453C47.1736 85.4453 42.7174 90.0348 42.7174 95.6488C42.7174 101.263 47.1736 105.852 52.7174 105.852Z" stroke="white" stroke-width="2"/>
</g>
<g filter="url(#filter3_d_1_2244)">
<ellipse cx="240.105" cy="88.9789" rx="9" ry="9.20348" fill="#4AACFF"/>
<path d="M240.105 99.1824C245.649 99.1824 250.105 94.5929 250.105 88.9789C250.105 83.3648 245.649 78.7754 240.105 78.7754C234.561 78.7754 230.105 83.3648 230.105 88.9789C230.105 94.5929 234.561 99.1824 240.105 99.1824Z" stroke="white" stroke-width="2"/>
</g>
<g filter="url(#filter4_d_1_2244)">
<ellipse cx="257.597" cy="98.9838" rx="9" ry="9.20348" fill="#4AACFF"/>
<path d="M257.597 109.187C263.141 109.187 267.597 104.598 267.597 98.9838C267.597 93.3697 263.141 88.7803 257.597 88.7803C252.053 88.7803 247.597 93.3697 247.597 98.9838C247.597 104.598 252.053 109.187 257.597 109.187Z" stroke="white" stroke-width="2"/>
</g>
<g filter="url(#filter5_d_1_2244)">
<ellipse cx="244.477" cy="98.9838" rx="9" ry="9.20348" fill="#4AACFF"/>
<path d="M244.477 109.187C250.021 109.187 254.477 104.598 254.477 98.9838C254.477 93.3697 250.021 88.7803 244.477 88.7803C238.933 88.7803 234.477 93.3697 234.477 98.9838C234.477 104.598 238.933 109.187 244.477 109.187Z" stroke="white" stroke-width="2"/>
</g>
<g filter="url(#filter6_d_1_2244)">
<ellipse cx="260.264" cy="69.9144" rx="9" ry="9.20348" fill="#4AACFF"/>
<path d="M260.264 80.1179C265.808 80.1179 270.264 75.5285 270.264 69.9144C270.264 64.3004 265.808 59.7109 260.264 59.7109C254.72 59.7109 250.264 64.3004 250.264 69.9144C250.264 75.5285 254.72 80.1179 260.264 80.1179Z" stroke="white" stroke-width="2"/>
</g>
<g filter="url(#filter7_d_1_2244)">
<ellipse cx="412.049" cy="181.86" rx="9" ry="9.20348" fill="#4AACFF"/>
<path d="M412.049 192.063C417.593 192.063 422.049 187.474 422.049 181.86C422.049 176.246 417.593 171.656 412.049 171.656C406.505 171.656 402.049 176.246 402.049 181.86C402.049 187.474 406.505 192.063 412.049 192.063Z" stroke="white" stroke-width="2"/>
</g>
<g filter="url(#filter8_d_1_2244)">
<ellipse cx="260.264" cy="306.467" rx="9" ry="9.20348" fill="#4AACFF"/>
<path d="M260.264 316.671C265.808 316.671 270.264 312.081 270.264 306.467C270.264 300.853 265.808 296.264 260.264 296.264C254.72 296.264 250.264 300.853 250.264 306.467C250.264 312.081 254.72 316.671 260.264 316.671Z" stroke="white" stroke-width="2"/>
</g>
<g filter="url(#filter9_d_1_2244)">
<ellipse cx="198.398" cy="501.661" rx="9" ry="9.20348" fill="#4AACFF"/>
<path d="M198.398 511.864C203.941 511.864 208.398 507.275 208.398 501.661C208.398 496.046 203.941 491.457 198.398 491.457C192.854 491.457 188.398 496.046 188.398 501.661C188.398 507.275 192.854 511.864 198.398 511.864Z" stroke="white" stroke-width="2"/>
</g>
<g filter="url(#filter10_d_1_2244)">
<ellipse cx="213.485" cy="489.258" rx="9" ry="9.20348" fill="#4AACFF"/>
<path d="M213.485 499.462C219.029 499.462 223.485 494.872 223.485 489.258C223.485 483.644 219.029 479.055 213.485 479.055C207.941 479.055 203.485 483.644 203.485 489.258C203.485 494.872 207.941 499.462 213.485 499.462Z" stroke="white" stroke-width="2"/>
</g>
<g filter="url(#filter11_d_1_2244)">
<ellipse cx="17.6447" cy="255.224" rx="9" ry="9.20348" fill="#4AACFF"/>
<path d="M17.6447 265.427C23.1885 265.427 27.6447 260.838 27.6447 255.224C27.6447 249.61 23.1885 245.021 17.6447 245.021C12.1008 245.021 7.64465 249.61 7.64465 255.224C7.64465 260.838 12.1008 265.427 17.6447 265.427Z" stroke="white" stroke-width="2"/>
</g>
<g filter="url(#filter12_d_1_2244)">
<ellipse cx="198.543" cy="93.533" rx="12" ry="12.2713" fill="#4AACFF"/>
<path d="M198.543 106.804C205.743 106.804 211.543 100.841 211.543 93.533C211.543 86.2247 205.743 80.2617 198.543 80.2617C191.342 80.2617 185.543 86.2247 185.543 93.533C185.543 100.841 191.342 106.804 198.543 106.804Z" stroke="white" stroke-width="2"/>
</g>
<defs>
<filter id="filter0_d_1_2244" x="151.495" y="0.62793" width="34" height="34.4072" filterUnits="userSpaceOnUse" color-interpolation-filters="sRGB">
<feFlood flood-opacity="0" result="BackgroundImageFix"/>
<feColorMatrix in="SourceAlpha" type="matrix" values="0 0 0 0 0 0 0 0 0 0 0 0 0 0 0 0 0 0 127 0" result="hardAlpha"/>
<feOffset/>
<feGaussianBlur stdDeviation="3"/>
<feComposite in2="hardAlpha" operator="out"/>
<feColorMatrix type="matrix" values="0 0 0 0 0.1875 0 0 0 0 0.1875 0 0 0 0 0.1875 0 0 0 0.27 0"/>
<feBlend mode="normal" in2="BackgroundImageFix" result="effect1_dropShadow_1_2244"/>
<feBlend mode="normal" in="SourceGraphic" in2="effect1_dropShadow_1_2244" result="shape"/>
</filter>
<filter id="filter1_d_1_2244" x="173.062" y="3.34961" width="34" height="34.4072" filterUnits="userSpaceOnUse" color-interpolation-filters="sRGB">
<feFlood flood-opacity="0" result="BackgroundImageFix"/>
<feColorMatrix in="SourceAlpha" type="matrix" values="0 0 0 0 0 0 0 0 0 0 0 0 0 0 0 0 0 0 127 0" result="hardAlpha"/>
<feOffset/>
<feGaussianBlur stdDeviation="3"/>
<feComposite in2="hardAlpha" operator="out"/>
<feColorMatrix type="matrix" values="0 0 0 0 0.1875 0 0 0 0 0.1875 0 0 0 0 0.1875 0 0 0 0.27 0"/>
<feBlend mode="normal" in2="BackgroundImageFix" result="effect1_dropShadow_1_2244"/>
<feBlend mode="normal" in="SourceGraphic" in2="effect1_dropShadow_1_2244" result="shape"/>
</filter>
<filter id="filter2_d_1_2244" x="35.7174" y="78.4453" width="34" height="34.4072" filterUnits="userSpaceOnUse" color-interpolation-filters="sRGB">
<feFlood flood-opacity="0" result="BackgroundImageFix"/>
<feColorMatrix in="SourceAlpha" type="matrix" values="0 0 0 0 0 0 0 0 0 0 0 0 0 0 0 0 0 0 127 0" result="hardAlpha"/>
<feOffset/>
<feGaussianBlur stdDeviation="3"/>
<feComposite in2="hardAlpha" operator="out"/>
<feColorMatrix type="matrix" values="0 0 0 0 0.1875 0 0 0 0 0.1875 0 0 0 0 0.1875 0 0 0 0.27 0"/>
<feBlend mode="normal" in2="BackgroundImageFix" result="effect1_dropShadow_1_2244"/>
<feBlend mode="normal" in="SourceGraphic" in2="effect1_dropShadow_1_2244" result="shape"/>
</filter>
<filter id="filter3_d_1_2244" x="223.105" y="71.7754" width="34" height="34.4072" filterUnits="userSpaceOnUse" color-interpolation-filters="sRGB">
<feFlood flood-opacity="0" result="BackgroundImageFix"/>
<feColorMatrix in="SourceAlpha" type="matrix" values="0 0 0 0 0 0 0 0 0 0 0 0 0 0 0 0 0 0 127 0" result="hardAlpha"/>
<feOffset/>
<feGaussianBlur stdDeviation="3"/>
<feComposite in2="hardAlpha" operator="out"/>
<feColorMatrix type="matrix" values="0 0 0 0 0.1875 0 0 0 0 0.1875 0 0 0 0 0.1875 0 0 0 0.27 0"/>
<feBlend mode="normal" in2="BackgroundImageFix" result="effect1_dropShadow_1_2244"/>
<feBlend mode="normal" in="SourceGraphic" in2="effect1_dropShadow_1_2244" result="shape"/>
</filter>
<filter id="filter4_d_1_2244" x="240.597" y="81.7803" width="34" height="34.4072" filterUnits="userSpaceOnUse" color-interpolation-filters="sRGB">
<feFlood flood-opacity="0" result="BackgroundImageFix"/>
<feColorMatrix in="SourceAlpha" type="matrix" values="0 0 0 0 0 0 0 0 0 0 0 0 0 0 0 0 0 0 127 0" result="hardAlpha"/>
<feOffset/>
<feGaussianBlur stdDeviation="3"/>
<feComposite in2="hardAlpha" operator="out"/>
<feColorMatrix type="matrix" values="0 0 0 0 0.1875 0 0 0 0 0.1875 0 0 0 0 0.1875 0 0 0 0.27 0"/>
<feBlend mode="normal" in2="BackgroundImageFix" result="effect1_dropShadow_1_2244"/>
<feBlend mode="normal" in="SourceGraphic" in2="effect1_dropShadow_1_2244" result="shape"/>
</filter>
<filter id="filter5_d_1_2244" x="227.477" y="81.7803" width="34" height="34.4072" filterUnits="userSpaceOnUse" color-interpolation-filters="sRGB">
<feFlood flood-opacity="0" result="BackgroundImageFix"/>
<feColorMatrix in="SourceAlpha" type="matrix" values="0 0 0 0 0 0 0 0 0 0 0 0 0 0 0 0 0 0 127 0" result="hardAlpha"/>
<feOffset/>
<feGaussianBlur stdDeviation="3"/>
<feComposite in2="hardAlpha" operator="out"/>
<feColorMatrix type="matrix" values="0 0 0 0 0.1875 0 0 0 0 0.1875 0 0 0 0 0.1875 0 0 0 0.27 0"/>
<feBlend mode="normal" in2="BackgroundImageFix" result="effect1_dropShadow_1_2244"/>
<feBlend mode="normal" in="SourceGraphic" in2="effect1_dropShadow_1_2244" result="shape"/>
</filter>
<filter id="filter6_d_1_2244" x="243.264" y="52.7109" width="34" height="34.4072" filterUnits="userSpaceOnUse" color-interpolation-filters="sRGB">
<feFlood flood-opacity="0" result="BackgroundImageFix"/>
<feColorMatrix in="SourceAlpha" type="matrix" values="0 0 0 0 0 0 0 0 0 0 0 0 0 0 0 0 0 0 127 0" result="hardAlpha"/>
<feOffset/>
<feGaussianBlur stdDeviation="3"/>
<feComposite in2="hardAlpha" operator="out"/>
<feColorMatrix type="matrix" values="0 0 0 0 0.1875 0 0 0 0 0.1875 0 0 0 0 0.1875 0 0 0 0.27 0"/>
<feBlend mode="normal" in2="BackgroundImageFix" result="effect1_dropShadow_1_2244"/>
<feBlend mode="normal" in="SourceGraphic" in2="effect1_dropShadow_1_2244" result="shape"/>
</filter>
<filter id="filter7_d_1_2244" x="395.049" y="164.656" width="34" height="34.4072" filterUnits="userSpaceOnUse" color-interpolation-filters="sRGB">
<feFlood flood-opacity="0" result="BackgroundImageFix"/>
<feColorMatrix in="SourceAlpha" type="matrix" values="0 0 0 0 0 0 0 0 0 0 0 0 0 0 0 0 0 0 127 0" result="hardAlpha"/>
<feOffset/>
<feGaussianBlur stdDeviation="3"/>
<feComposite in2="hardAlpha" operator="out"/>
<feColorMatrix type="matrix" values="0 0 0 0 0.1875 0 0 0 0 0.1875 0 0 0 0 0.1875 0 0 0 0.27 0"/>
<feBlend mode="normal" in2="BackgroundImageFix" result="effect1_dropShadow_1_2244"/>
<feBlend mode="normal" in="SourceGraphic" in2="effect1_dropShadow_1_2244" result="shape"/>
</filter>
<filter id="filter8_d_1_2244" x="243.264" y="289.264" width="34" height="34.4072" filterUnits="userSpaceOnUse" color-interpolation-filters="sRGB">
<feFlood flood-opacity="0" result="BackgroundImageFix"/>
<feColorMatrix in="SourceAlpha" type="matrix" values="0 0 0 0 0 0 0 0 0 0 0 0 0 0 0 0 0 0 127 0" result="hardAlpha"/>
<feOffset/>
<feGaussianBlur stdDeviation="3"/>
<feComposite in2="hardAlpha" operator="out"/>
<feColorMatrix type="matrix" values="0 0 0 0 0.1875 0 0 0 0 0.1875 0 0 0 0 0.1875 0 0 0 0.27 0"/>
<feBlend mode="normal" in2="BackgroundImageFix" result="effect1_dropShadow_1_2244"/>
<feBlend mode="normal" in="SourceGraphic" in2="effect1_dropShadow_1_2244" result="shape"/>
</filter>
<filter id="filter9_d_1_2244" x="181.398" y="484.457" width="34" height="34.4072" filterUnits="userSpaceOnUse" color-interpolation-filters="sRGB">
<feFlood flood-opacity="0" result="BackgroundImageFix"/>
<feColorMatrix in="SourceAlpha" type="matrix" values="0 0 0 0 0 0 0 0 0 0 0 0 0 0 0 0 0 0 127 0" result="hardAlpha"/>
<feOffset/>
<feGaussianBlur stdDeviation="3"/>
<feComposite in2="hardAlpha" operator="out"/>
<feColorMatrix type="matrix" values="0 0 0 0 0.1875 0 0 0 0 0.1875 0 0 0 0 0.1875 0 0 0 0.27 0"/>
<feBlend mode="normal" in2="BackgroundImageFix" result="effect1_dropShadow_1_2244"/>
<feBlend mode="normal" in="SourceGraphic" in2="effect1_dropShadow_1_2244" result="shape"/>
</filter>
<filter id="filter10_d_1_2244" x="196.485" y="472.055" width="34" height="34.4072" filterUnits="userSpaceOnUse" color-interpolation-filters="sRGB">
<feFlood flood-opacity="0" result="BackgroundImageFix"/>
<feColorMatrix in="SourceAlpha" type="matrix" values="0 0 0 0 0 0 0 0 0 0 0 0 0 0 0 0 0 0 127 0" result="hardAlpha"/>
<feOffset/>
<feGaussianBlur stdDeviation="3"/>
<feComposite in2="hardAlpha" operator="out"/>
<feColorMatrix type="matrix" values="0 0 0 0 0.1875 0 0 0 0 0.1875 0 0 0 0 0.1875 0 0 0 0.27 0"/>
<feBlend mode="normal" in2="BackgroundImageFix" result="effect1_dropShadow_1_2244"/>
<feBlend mode="normal" in="SourceGraphic" in2="effect1_dropShadow_1_2244" result="shape"/>
</filter>
<filter id="filter11_d_1_2244" x="0.644653" y="238.021" width="34" height="34.4072" filterUnits="userSpaceOnUse" color-interpolation-filters="sRGB">
<feFlood flood-opacity="0" result="BackgroundImageFix"/>
<feColorMatrix in="SourceAlpha" type="matrix" values="0 0 0 0 0 0 0 0 0 0 0 0 0 0 0 0 0 0 127 0" result="hardAlpha"/>
<feOffset/>
<feGaussianBlur stdDeviation="3"/>
<feComposite in2="hardAlpha" operator="out"/>
<feColorMatrix type="matrix" values="0 0 0 0 0.1875 0 0 0 0 0.1875 0 0 0 0 0.1875 0 0 0 0.27 0"/>
<feBlend mode="normal" in2="BackgroundImageFix" result="effect1_dropShadow_1_2244"/>
<feBlend mode="normal" in="SourceGraphic" in2="effect1_dropShadow_1_2244" result="shape"/>
</filter>
<filter id="filter12_d_1_2244" x="164.543" y="59.2617" width="68" height="68.543" filterUnits="userSpaceOnUse" color-interpolation-filters="sRGB">
<feFlood flood-opacity="0" result="BackgroundImageFix"/>
<feColorMatrix in="SourceAlpha" type="matrix" values="0 0 0 0 0 0 0 0 0 0 0 0 0 0 0 0 0 0 127 0" result="hardAlpha"/>
<feOffset/>
<feGaussianBlur stdDeviation="10"/>
<feComposite in2="hardAlpha" operator="out"/>
<feColorMatrix type="matrix" values="0 0 0 0 0.160784 0 0 0 0 0.607843 0 0 0 0 0.847059 0 0 0 1 0"/>
<feBlend mode="normal" in2="BackgroundImageFix" result="effect1_dropShadow_1_2244"/>
<feBlend mode="normal" in="SourceGraphic" in2="effect1_dropShadow_1_2244" result="shape"/>
</filter>
</defs>
</svg>
