<svg width="30" height="30" viewBox="0 0 30 30" fill="none" xmlns="http://www.w3.org/2000/svg">
<g clip-path="url(#clip0_1_2080)">
<path d="M15.0001 0.599609C7.0471 0.599609 0.600098 7.04661 0.600098 14.9996C0.600098 22.9526 7.0471 29.3996 15.0001 29.3996C22.9531 29.3996 29.4001 22.9526 29.4001 14.9996C29.4001 7.04661 22.9531 0.599609 15.0001 0.599609ZM18.4111 10.5506H16.2466C15.9901 10.5506 15.7051 10.8881 15.7051 11.3366V12.8996H18.4126L18.0031 15.1286H15.7051V21.8201H13.1506V15.1286H10.8331V12.8996H13.1506V11.5886C13.1506 9.70761 14.4556 8.17911 16.2466 8.17911H18.4111V10.5506V10.5506Z" fill="white"/>
</g>
<defs>
<clipPath id="clip0_1_2080">
<rect width="30" height="30" fill="white"/>
</clipPath>
</defs>
</svg>
