<svg width="30" height="31" viewBox="0 0 30 31" fill="none" xmlns="http://www.w3.org/2000/svg">
<g clip-path="url(#clip0_1_2300)">
<path d="M15.0001 0.902344C7.0471 0.902344 0.600098 7.34934 0.600098 15.3023C0.600098 23.2553 7.0471 29.7023 15.0001 29.7023C22.9531 29.7023 29.4001 23.2553 29.4001 15.3023C29.4001 7.34934 22.9531 0.902344 15.0001 0.902344ZM18.4111 10.8533H16.2466C15.9901 10.8533 15.7051 11.1908 15.7051 11.6393V13.2023H18.4126L18.0031 15.4313H15.7051V22.1228H13.1506V15.4313H10.8331V13.2023H13.1506V11.8913C13.1506 10.0103 14.4556 8.48184 16.2466 8.48184H18.4111V10.8533V10.8533Z" fill="white"/>
</g>
<defs>
<clipPath id="clip0_1_2300">
<rect width="30" height="30" fill="white" transform="translate(0 0.302734)"/>
</clipPath>
</defs>
</svg>
