<svg width="25" height="25" viewBox="0 0 25 25" fill="none" xmlns="http://www.w3.org/2000/svg">
<g clip-path="url(#clip0_1_2211)">
<path d="M12.8731 22.6185C10.2497 22.6185 7.73384 21.5764 5.87886 19.7214C4.02388 17.8664 2.98177 15.3505 2.98177 12.7272C2.98177 10.1039 4.02388 7.58797 5.87886 5.73299C7.73384 3.87801 10.2497 2.83589 12.8731 2.83589C15.4964 2.83589 18.0123 3.87801 19.8673 5.73299C21.7223 7.58797 22.7644 10.1039 22.7644 12.7272C22.7644 15.3505 21.7223 17.8664 19.8673 19.7214C18.0123 21.5764 15.4964 22.6185 12.8731 22.6185ZM12.8731 24.0315C15.8712 24.0315 18.7465 22.8405 20.8664 20.7206C22.9864 18.6006 24.1774 15.7253 24.1774 12.7272C24.1774 9.7291 22.9864 6.85379 20.8664 4.73382C18.7465 2.61384 15.8712 1.42285 12.8731 1.42285C9.87497 1.42285 6.99967 2.61384 4.87969 4.73382C2.75972 6.85379 1.56873 9.7291 1.56873 12.7272C1.56873 15.7253 2.75972 18.6006 4.87969 20.7206C6.99967 22.8405 9.87497 24.0315 12.8731 24.0315V24.0315Z" fill="#1262AF"/>
<path d="M10.3497 7.92733C10.483 7.85869 10.6326 7.82815 10.7822 7.83908C10.9317 7.85001 11.0753 7.90198 11.1972 7.98927L16.9019 12.064C17.0075 12.1394 17.0936 12.239 17.1531 12.3543C17.2125 12.4697 17.2435 12.5976 17.2435 12.7274C17.2435 12.8572 17.2125 12.9851 17.1531 13.1005C17.0936 13.2159 17.0075 13.3154 16.9019 13.3908L11.1972 17.4656C11.0754 17.5528 10.9318 17.6047 10.7823 17.6156C10.6329 17.6266 10.4833 17.5961 10.3501 17.5275C10.2168 17.4589 10.105 17.355 10.027 17.227C9.94904 17.099 9.90784 16.952 9.90796 16.8022V8.65264C9.9078 8.50282 9.94895 8.35586 10.0269 8.22791C10.1048 8.09995 10.2165 7.99595 10.3497 7.92733V7.92733Z" fill="#1262AF"/>
</g>
<defs>
<clipPath id="clip0_1_2211">
<rect width="24" height="24" fill="white" transform="translate(0.873047 0.727539)"/>
</clipPath>
</defs>
</svg>
