<svg width="30" height="31" viewBox="0 0 30 31" fill="none" xmlns="http://www.w3.org/2000/svg">
<g clip-path="url(#clip0_1_2304)">
<path d="M19.5001 15.3023C19.5001 16.4958 19.026 17.6404 18.1821 18.4843C17.3382 19.3282 16.1936 19.8023 15.0001 19.8023C13.8066 19.8023 12.662 19.3282 11.8181 18.4843C10.9742 17.6404 10.5001 16.4958 10.5001 15.3023C10.5001 15.0458 10.5271 14.7953 10.5736 14.5523H9.0001V20.5478C9.0001 20.9648 9.3376 21.3023 9.7546 21.3023H20.2471C20.4469 21.3019 20.6385 21.2223 20.7796 21.0808C20.9208 20.9394 21.0001 20.7477 21.0001 20.5478V14.5523H19.4266C19.4731 14.7953 19.5001 15.0458 19.5001 15.3023V15.3023ZM15.0001 18.3023C15.3942 18.3022 15.7844 18.2245 16.1484 18.0736C16.5124 17.9227 16.8432 17.7016 17.1217 17.4229C17.4003 17.1442 17.6213 16.8133 17.772 16.4492C17.9227 16.0851 18.0002 15.6949 18.0001 15.3008C18 14.9068 17.9223 14.5166 17.7714 14.1526C17.6205 13.7885 17.3994 13.4578 17.1207 13.1792C16.842 12.9006 16.5111 12.6797 16.147 12.529C15.7829 12.3783 15.3927 12.3007 14.9986 12.3008C14.2028 12.301 13.4396 12.6174 12.877 13.1803C12.3144 13.7432 11.9984 14.5065 11.9986 15.3023C11.9988 16.0982 12.3151 16.8614 12.878 17.424C13.4409 17.9866 14.2043 18.3025 15.0001 18.3023V18.3023ZM18.6001 12.1523H20.3986C20.5181 12.1523 20.6327 12.105 20.7173 12.0206C20.802 11.9363 20.8497 11.8218 20.8501 11.7023V9.90384C20.8501 9.7841 20.8025 9.66926 20.7179 9.58458C20.6332 9.49991 20.5183 9.45234 20.3986 9.45234H18.6001C18.4804 9.45234 18.3655 9.49991 18.2808 9.58458C18.1962 9.66926 18.1486 9.7841 18.1486 9.90384V11.7023C18.1501 11.9498 18.3526 12.1523 18.6001 12.1523V12.1523ZM15.0001 0.902344C11.181 0.902344 7.51828 2.41948 4.81776 5.12001C2.11724 7.82053 0.600098 11.4832 0.600098 15.3023C0.600098 19.1215 2.11724 22.7842 4.81776 25.4847C7.51828 28.1852 11.181 29.7023 15.0001 29.7023C16.8911 29.7023 18.7637 29.3299 20.5107 28.6062C22.2578 27.8825 23.8453 26.8218 25.1824 25.4847C26.5196 24.1475 27.5803 22.5601 28.304 20.813C29.0276 19.0659 29.4001 17.1934 29.4001 15.3023C29.4001 13.4113 29.0276 11.5388 28.304 9.7917C27.5803 8.04461 26.5196 6.45717 25.1824 5.12001C23.8453 3.78284 22.2578 2.72215 20.5107 1.99848C18.7637 1.27481 16.8911 0.902344 15.0001 0.902344V0.902344ZM22.5001 21.1358C22.5001 22.0523 21.7501 22.8023 20.8336 22.8023H9.1666C8.2501 22.8023 7.5001 22.0523 7.5001 21.1358V9.46884C7.5001 8.55234 8.2501 7.80234 9.1666 7.80234H20.8336C21.7501 7.80234 22.5001 8.55234 22.5001 9.46884V21.1358V21.1358Z" fill="white"/>
</g>
<defs>
<clipPath id="clip0_1_2304">
<rect width="30" height="30" fill="white" transform="translate(0 0.302734)"/>
</clipPath>
</defs>
</svg>
