<svg width="30" height="30" viewBox="0 0 30 30" fill="none" xmlns="http://www.w3.org/2000/svg">
<g clip-path="url(#clip0_1_2082)">
<path d="M15.0001 0.599609C7.0471 0.599609 0.600098 7.04661 0.600098 14.9996C0.600098 22.9526 7.0471 29.3996 15.0001 29.3996C22.9531 29.3996 29.4001 22.9526 29.4001 14.9996C29.4001 7.04661 22.9531 0.599609 15.0001 0.599609ZM20.8576 12.3956C20.8636 12.5186 20.8651 12.6416 20.8651 12.7616C20.8651 16.5116 18.0136 20.8331 12.7966 20.8331C11.255 20.8357 9.74555 20.3929 8.4496 19.5581C8.6701 19.5851 8.8966 19.5956 9.1261 19.5956C10.4551 19.5956 11.6776 19.1441 12.6481 18.3821C12.0567 18.3705 11.4836 18.1747 11.0088 17.8219C10.5339 17.4691 10.181 16.977 9.9991 16.4141C10.4238 16.4949 10.8614 16.4779 11.2786 16.3646C10.6367 16.2348 10.0594 15.887 9.64466 15.3801C9.22993 14.8732 9.00326 14.2385 9.0031 13.5836V13.5491C9.3856 13.7606 9.8236 13.8896 10.2886 13.9046C9.6868 13.504 9.26078 12.8886 9.09767 12.1843C8.93455 11.48 9.04668 10.74 9.4111 10.1156C10.1235 10.9916 11.012 11.7082 12.019 12.2191C13.0259 12.7299 14.1289 13.0236 15.2566 13.0811C15.1132 12.4726 15.1749 11.8337 15.4321 11.2639C15.6893 10.694 16.1275 10.2251 16.6787 9.93001C17.2299 9.63492 17.8631 9.53019 18.4799 9.63212C19.0968 9.73404 19.6627 10.0369 20.0896 10.4936C20.7244 10.368 21.3331 10.1352 21.8896 9.80511C21.678 10.4623 21.2351 11.0204 20.6431 11.3756C21.2054 11.3079 21.7544 11.1567 22.2721 10.9271C21.8918 11.497 21.4128 11.9943 20.8576 12.3956V12.3956Z" fill="white"/>
</g>
<defs>
<clipPath id="clip0_1_2082">
<rect width="30" height="30" fill="white"/>
</clipPath>
</defs>
</svg>
