<svg width="30" height="31" viewBox="0 0 30 31" fill="none" xmlns="http://www.w3.org/2000/svg">
<g clip-path="url(#clip0_1_2302)">
<path d="M15.0001 0.902344C7.0471 0.902344 0.600098 7.34934 0.600098 15.3023C0.600098 23.2553 7.0471 29.7023 15.0001 29.7023C22.9531 29.7023 29.4001 23.2553 29.4001 15.3023C29.4001 7.34934 22.9531 0.902344 15.0001 0.902344ZM20.8576 12.6983C20.8636 12.8213 20.8651 12.9443 20.8651 13.0643C20.8651 16.8143 18.0136 21.1358 12.7966 21.1358C11.255 21.1384 9.74555 20.6957 8.4496 19.8608C8.6701 19.8878 8.8966 19.8983 9.1261 19.8983C10.4551 19.8983 11.6776 19.4468 12.6481 18.6848C12.0567 18.6732 11.4836 18.4774 11.0088 18.1246C10.5339 17.7719 10.181 17.2797 9.9991 16.7168C10.4238 16.7976 10.8614 16.7807 11.2786 16.6673C10.6367 16.5375 10.0594 16.1897 9.64466 15.6828C9.22993 15.176 9.00326 14.5413 9.0031 13.8863V13.8518C9.3856 14.0633 9.8236 14.1923 10.2886 14.2073C9.6868 13.8067 9.26078 13.1913 9.09767 12.487C8.93455 11.7827 9.04668 11.0427 9.4111 10.4183C10.1235 11.2943 11.012 12.011 12.019 12.5218C13.0259 13.0327 14.1289 13.3263 15.2566 13.3838C15.1132 12.7753 15.1749 12.1365 15.4321 11.5666C15.6893 10.9967 16.1275 10.5278 16.6787 10.2327C17.2299 9.93765 17.8631 9.83293 18.4799 9.93485C19.0968 10.0368 19.6627 10.3396 20.0896 10.7963C20.7244 10.6708 21.3331 10.4379 21.8896 10.1078C21.678 10.765 21.2351 11.3231 20.6431 11.6783C21.2054 11.6106 21.7544 11.4595 22.2721 11.2298C21.8918 11.7997 21.4128 12.297 20.8576 12.6983V12.6983Z" fill="white"/>
</g>
<defs>
<clipPath id="clip0_1_2302">
<rect width="30" height="30" fill="white" transform="translate(0 0.302734)"/>
</clipPath>
</defs>
</svg>
