<svg width="25" height="24" viewBox="0 0 25 24" fill="none" xmlns="http://www.w3.org/2000/svg">
<g clip-path="url(#clip0_1_2159)">
<path d="M12.8731 21.891C10.2497 21.891 7.73384 20.8488 5.87886 18.9939C4.02388 17.1389 2.98177 14.623 2.98177 11.9997C2.98177 9.37632 4.02388 6.86043 5.87886 5.00545C7.73384 3.15047 10.2497 2.10836 12.8731 2.10836C15.4964 2.10836 18.0123 3.15047 19.8673 5.00545C21.7223 6.86043 22.7644 9.37632 22.7644 11.9997C22.7644 14.623 21.7223 17.1389 19.8673 18.9939C18.0123 20.8488 15.4964 21.891 12.8731 21.891ZM12.8731 23.304C15.8712 23.304 18.7465 22.113 20.8664 19.993C22.9864 17.8731 24.1774 14.9978 24.1774 11.9997C24.1774 9.00156 22.9864 6.12625 20.8664 4.00628C18.7465 1.8863 15.8712 0.695313 12.8731 0.695312C9.87497 0.695313 6.99967 1.8863 4.87969 4.00628C2.75972 6.12625 1.56873 9.00156 1.56873 11.9997C1.56873 14.9978 2.75972 17.8731 4.87969 19.993C6.99967 22.113 9.87497 23.304 12.8731 23.304V23.304Z" fill="#1262AF"/>
<path d="M10.3497 7.19979C10.483 7.13115 10.6326 7.10062 10.7822 7.11154C10.9317 7.12247 11.0753 7.17444 11.1972 7.26173L16.9019 11.3365C17.0075 11.4119 17.0936 11.5114 17.1531 11.6268C17.2125 11.7422 17.2435 11.8701 17.2435 11.9999C17.2435 12.1297 17.2125 12.2576 17.1531 12.3729C17.0936 12.4883 17.0075 12.5879 16.9019 12.6632L11.1972 16.738C11.0754 16.8252 10.9318 16.8772 10.7823 16.8881C10.6329 16.899 10.4833 16.8685 10.3501 16.8C10.2168 16.7314 10.105 16.6274 10.027 16.4995C9.94904 16.3715 9.90784 16.2245 9.90796 16.0746V7.9251C9.9078 7.77529 9.94895 7.62832 10.0269 7.50037C10.1048 7.37241 10.2165 7.26841 10.3497 7.19979V7.19979Z" fill="#1262AF"/>
</g>
<defs>
<clipPath id="clip0_1_2159">
<rect width="24" height="24" fill="white" transform="translate(0.873047)"/>
</clipPath>
</defs>
</svg>
