<svg width="25" height="26" viewBox="0 0 25 26" fill="none" xmlns="http://www.w3.org/2000/svg">
<path d="M12.5 23.1901C9.76733 23.1901 7.14661 22.1046 5.21434 20.1723C3.28207 18.24 2.19653 15.6193 2.19653 12.8867C2.19653 10.154 3.28207 7.53332 5.21434 5.60105C7.14661 3.66879 9.76733 2.58325 12.5 2.58325C15.2326 2.58325 17.8533 3.66879 19.7856 5.60105C21.7179 7.53332 22.8034 10.154 22.8034 12.8867C22.8034 15.6193 21.7179 18.24 19.7856 20.1723C17.8533 22.1046 15.2326 23.1901 12.5 23.1901ZM12.5 24.662C15.623 24.662 18.6181 23.4214 20.8264 21.2131C23.0347 19.0048 24.2753 16.0097 24.2753 12.8867C24.2753 9.76367 23.0347 6.76856 20.8264 4.56025C18.6181 2.35194 15.623 1.11133 12.5 1.11133C9.37695 1.11133 6.38184 2.35194 4.17353 4.56025C1.96522 6.76856 0.724609 9.76367 0.724609 12.8867C0.724609 16.0097 1.96522 19.0048 4.17353 21.2131C6.38184 23.4214 9.37695 24.662 12.5 24.662V24.662Z" fill="#1262AF"/>
<path d="M9.87149 7.88667C10.0103 7.81516 10.1662 7.78336 10.322 7.79474C10.4778 7.80612 10.6274 7.86026 10.7544 7.95118L16.6967 12.1957C16.8068 12.2743 16.8965 12.3779 16.9584 12.4981C17.0202 12.6183 17.0525 12.7516 17.0525 12.8867C17.0525 13.0219 17.0202 13.1552 16.9584 13.2754C16.8965 13.3956 16.8068 13.4992 16.6967 13.5778L10.7544 17.8223C10.6274 17.9132 10.4779 17.9673 10.3222 17.9786C10.1665 17.99 10.0107 17.9583 9.87189 17.8868C9.73308 17.8154 9.61666 17.7071 9.53541 17.5738C9.45417 17.4405 9.41125 17.2874 9.41138 17.1313V8.6422C9.41121 8.48614 9.45407 8.33305 9.53524 8.19976C9.61641 8.06648 9.73276 7.95814 9.87149 7.88667V7.88667Z" fill="#1262AF"/>
</svg>
